<svg width="23" height="23" viewBox="0 0 23 23" fill="none" xmlns="http://www.w3.org/2000/svg">
<path d="M21.428 10.448H12.603V2.03C12.603 1.73747 12.4868 1.45692 12.2799 1.25006C12.0731 1.04321 11.7925 0.927002 11.5 0.927002C11.2074 0.927002 10.9269 1.04321 10.72 1.25006C10.5132 1.45692 10.397 1.73747 10.397 2.03V10.448H1.56798C1.42341 10.4371 1.27815 10.4561 1.14129 10.5039C1.00442 10.5517 0.878905 10.6273 0.772596 10.7258C0.666288 10.8244 0.581478 10.9439 0.523481 11.0767C0.465483 11.2096 0.435547 11.353 0.435547 11.498C0.435547 11.643 0.465483 11.7864 0.523481 11.9193C0.581478 12.0521 0.666288 12.1716 0.772596 12.2702C0.878905 12.3687 1.00442 12.4443 1.14129 12.4921C1.27815 12.5399 1.42341 12.5589 1.56798 12.548H10.396V20.966C10.396 21.2585 10.5122 21.5391 10.719 21.7459C10.9259 21.9528 11.2064 22.069 11.499 22.069C11.7915 22.069 12.0721 21.9528 12.2789 21.7459C12.4858 21.5391 12.602 21.2585 12.602 20.966V12.552H21.428C21.5725 12.5629 21.7178 12.5439 21.8547 12.4961C21.9915 12.4483 22.117 12.3727 22.2234 12.2742C22.3297 12.1756 22.4145 12.0561 22.4725 11.9233C22.5305 11.7904 22.5604 11.647 22.5604 11.502C22.5604 11.357 22.5305 11.2136 22.4725 11.0807C22.4145 10.9479 22.3297 10.8284 22.2234 10.7298C22.117 10.6313 21.9915 10.5557 21.8547 10.5079C21.7178 10.4601 21.5725 10.4411 21.428 10.452V10.448Z" fill="white"/>
</svg>
