<svg width="7" height="12" viewBox="0 0 7 12" fill="none" xmlns="http://www.w3.org/2000/svg">
<path d="M0.357941 6.32706L5.86894 11.8231C5.9566 11.9048 6.0726 11.9493 6.19243 11.9471C6.31226 11.9449 6.42656 11.8962 6.51118 11.8113C6.5958 11.7264 6.64412 11.612 6.64594 11.4922C6.64776 11.3723 6.60294 11.2565 6.52094 11.1691L1.33794 6.00006L6.52094 0.831059C6.60294 0.743647 6.64776 0.627789 6.64594 0.50795C6.64412 0.38811 6.5958 0.273669 6.51118 0.18879C6.42656 0.103911 6.31226 0.0552387 6.19243 0.05305C6.0726 0.0508614 5.9566 0.0953264 5.86894 0.177058L0.357941 5.67706C0.314945 5.71997 0.280835 5.77094 0.257561 5.82705C0.234287 5.88316 0.222305 5.94331 0.222305 6.00406C0.222305 6.0648 0.234287 6.12495 0.257561 6.18107C0.280835 6.23718 0.314945 6.28815 0.357941 6.33106V6.32706Z" fill="white"/>
</svg>
