<svg width="19" height="24" viewBox="0 0 19 24" fill="none" xmlns="http://www.w3.org/2000/svg">
<path d="M16.971 3.46099H13.058V2.74999C13.058 2.18375 12.8331 1.64071 12.4327 1.24032C12.0323 0.839927 11.4892 0.61499 10.923 0.61499H8.077C7.51076 0.61499 6.96772 0.839927 6.56733 1.24032C6.16694 1.64071 5.942 2.18375 5.942 2.74999V3.46199H2.029C1.55735 3.46199 1.10501 3.64928 0.771412 3.98269C0.437813 4.3161 0.250265 4.76834 0.25 5.23999V6.66299C0.25 6.85182 0.325016 7.03292 0.458542 7.16645C0.592068 7.29998 0.773168 7.37499 0.962002 7.37499H18.038C18.2268 7.37499 18.4079 7.29998 18.5415 7.16645C18.675 7.03292 18.75 6.85182 18.75 6.66299V5.23999C18.75 4.76817 18.5626 4.31567 18.2289 3.98205C17.8953 3.64842 17.4428 3.46099 16.971 3.46099ZM7.365 2.74899C7.365 2.56016 7.44001 2.37906 7.57354 2.24553C7.70707 2.112 7.88817 2.03699 8.077 2.03699H10.923C11.1118 2.03699 11.2929 2.112 11.4265 2.24553C11.56 2.37906 11.635 2.56016 11.635 2.74899V3.46099H7.365V2.74899Z" fill="white"/>
<path d="M1.60093 8.798C1.57083 8.79797 1.54104 8.80405 1.51336 8.81589C1.48569 8.82773 1.4607 8.84507 1.43994 8.86687C1.41917 8.88866 1.40306 8.91446 1.39257 8.94267C1.38208 8.97089 1.37744 9.00094 1.37893 9.03101L1.96594 21.351C1.99142 21.8991 2.22723 22.4163 2.62433 22.795C3.02143 23.1736 3.54924 23.3846 4.09794 23.384H14.9029C15.4516 23.3846 15.9794 23.1736 16.3765 22.795C16.7736 22.4163 17.0095 21.8991 17.0349 21.351L17.6219 9.03101C17.6234 9.00094 17.6188 8.97089 17.6083 8.94267C17.5978 8.91446 17.5817 8.88866 17.5609 8.86687C17.5402 8.84507 17.5152 8.82773 17.4875 8.81589C17.4598 8.80405 17.43 8.79797 17.3999 8.798H1.60093ZM12.3469 10.577C12.3433 10.4813 12.3591 10.3859 12.3932 10.2964C12.4274 10.207 12.4792 10.1253 12.5456 10.0564C12.6121 9.98742 12.6917 9.93258 12.7798 9.89511C12.8679 9.85764 12.9627 9.83833 13.0584 9.83833C13.1542 9.83833 13.2489 9.85764 13.3371 9.89511C13.4252 9.93258 13.5048 9.98742 13.5712 10.0564C13.6377 10.1253 13.6895 10.207 13.7236 10.2964C13.7578 10.3859 13.7735 10.4813 13.7699 10.577V19.827C13.7735 19.9227 13.7578 20.0181 13.7236 20.1076C13.6895 20.197 13.6377 20.2787 13.5712 20.3476C13.5048 20.4166 13.4252 20.4714 13.3371 20.5089C13.2489 20.5464 13.1542 20.5657 13.0584 20.5657C12.9627 20.5657 12.8679 20.5464 12.7798 20.5089C12.6917 20.4714 12.6121 20.4166 12.5456 20.3476C12.4792 20.2787 12.4274 20.197 12.3932 20.1076C12.3591 20.0181 12.3433 19.9227 12.3469 19.827V10.577ZM8.78894 10.577C8.79584 10.3929 8.87382 10.2187 9.0065 10.0909C9.13918 9.96309 9.31623 9.89168 9.50044 9.89168C9.68466 9.89168 9.8617 9.96309 9.99438 10.0909C10.1271 10.2187 10.205 10.3929 10.2119 10.577V19.827C10.2155 19.9227 10.1998 20.0181 10.1656 20.1076C10.1315 20.197 10.0797 20.2787 10.0132 20.3476C9.94682 20.4166 9.86717 20.4714 9.77906 20.5089C9.69095 20.5464 9.59619 20.5657 9.50044 20.5657C9.40469 20.5657 9.30993 20.5464 9.22182 20.5089C9.1337 20.4714 9.05405 20.4166 8.98763 20.3476C8.92121 20.2787 8.86937 20.197 8.83523 20.1076C8.80109 20.0181 8.78535 19.9227 8.78894 19.827V10.577ZM5.23094 10.577C5.23784 10.3929 5.31582 10.2187 5.4485 10.0909C5.58118 9.96309 5.75822 9.89168 5.94243 9.89168C6.12665 9.89168 6.3037 9.96309 6.43638 10.0909C6.56905 10.2187 6.64703 10.3929 6.65394 10.577V19.827C6.65752 19.9227 6.64177 20.0181 6.60763 20.1076C6.57349 20.197 6.52167 20.2787 6.45524 20.3476C6.38882 20.4166 6.30917 20.4714 6.22106 20.5089C6.13295 20.5464 6.03818 20.5657 5.94243 20.5657C5.84669 20.5657 5.75193 20.5464 5.66382 20.5089C5.57571 20.4714 5.49606 20.4166 5.42963 20.3476C5.36321 20.2787 5.31138 20.197 5.27724 20.1076C5.24309 20.0181 5.22735 19.9227 5.23094 19.827V10.577Z" fill="white"/>
</svg>
