<svg width="8" height="12" viewBox="0 0 8 12" fill="none" xmlns="http://www.w3.org/2000/svg">
<path d="M6.95602 5.67294L1.44502 0.176942C1.35736 0.0952102 1.24137 0.0507445 1.12154 0.0529336C1.0017 0.0551227 0.887407 0.103795 0.802788 0.188674C0.718169 0.273553 0.669844 0.387994 0.668022 0.507833C0.6662 0.627672 0.711023 0.74353 0.793022 0.830942L5.97602 5.99994L0.793022 11.1689C0.711023 11.2564 0.6662 11.3722 0.668022 11.4921C0.669844 11.6119 0.718169 11.7263 0.802788 11.8112C0.887407 11.8961 1.0017 11.9448 1.12154 11.9469C1.24137 11.9491 1.35736 11.9047 1.44502 11.8229L6.95602 6.32294C6.99902 6.28003 7.03313 6.22906 7.0564 6.17295C7.07968 6.11684 7.09166 6.05669 7.09166 5.99594C7.09166 5.9352 7.07968 5.87505 7.0564 5.81893C7.03313 5.76282 6.99902 5.71185 6.95602 5.66894V5.67294Z" fill="white"/>
</svg>
