<svg width="23" height="15" viewBox="0 0 23 15" fill="none" xmlns="http://www.w3.org/2000/svg">
<path d="M11.5 0.886963C7.261 0.886963 3.417 3.20596 0.580003 6.97296C0.467338 7.12443 0.406494 7.30819 0.406494 7.49696C0.406494 7.68574 0.467338 7.86949 0.580003 8.02097C3.417 11.793 7.261 14.112 11.5 14.112C15.739 14.112 19.583 11.793 22.42 8.02596C22.5327 7.87449 22.5935 7.69074 22.5935 7.50196C22.5935 7.31318 22.5327 7.12944 22.42 6.97797C19.583 3.20597 15.739 0.886963 11.5 0.886963ZM11.8 12.156C10.8532 12.2178 9.91012 11.9895 9.09642 11.5016C8.28271 11.0137 7.63707 10.2893 7.24561 9.42508C6.85414 8.56082 6.73544 7.59776 6.90535 6.66432C7.07525 5.73088 7.52567 4.87141 8.19656 4.20052C8.86745 3.52963 9.72692 3.07921 10.6604 2.90931C11.5938 2.73941 12.5569 2.8581 13.4211 3.24957C14.2854 3.64103 15.0097 4.28667 15.4977 5.10038C15.9856 5.91409 16.2138 6.8572 16.152 7.80396C16.0778 8.9326 15.5964 9.99592 14.7972 10.7964C13.9981 11.5968 12.9355 12.0799 11.807 12.156H11.8ZM11.659 10.005C11.1492 10.0374 10.6416 9.91369 10.2038 9.65031C9.76609 9.38694 9.41903 8.99641 9.20888 8.53077C8.99874 8.06513 8.9355 7.54651 9.02759 7.04401C9.11968 6.54152 9.36274 6.07903 9.72436 5.71819C10.086 5.35734 10.549 5.11527 11.0517 5.02425C11.5544 4.93322 12.0728 4.99757 12.538 5.20871C13.0032 5.41985 13.393 5.76774 13.6555 6.20604C13.9179 6.64433 14.0405 7.1522 14.007 7.66196C13.9679 8.27054 13.7085 8.84404 13.2773 9.27525C12.8461 9.70647 12.2726 9.96587 11.664 10.005H11.659Z" fill="white"/>
</svg>
